<svg width="16" height="17" viewBox="0 0 16 17" fill="none" xmlns="http://www.w3.org/2000/svg">
<path d="M12.3334 8.93311V11.3998C12.3334 13.4798 10.3934 15.1664 8.00008 15.1664C5.60675 15.1664 3.66675 13.4798 3.66675 11.3998V8.93311C3.66675 11.0131 5.60675 12.4998 8.00008 12.4998C10.3934 12.4998 12.3334 11.0131 12.3334 8.93311Z" stroke="#9CA5B3" stroke-width="1.5" stroke-linecap="round" stroke-linejoin="round"/>
<path d="M12.3334 5.60016C12.3334 6.20683 12.1667 6.76683 11.8734 7.24683C11.1601 8.42016 9.69341 9.16683 8.00008 9.16683C6.30675 9.16683 4.84008 8.42016 4.12675 7.24683C3.83342 6.76683 3.66675 6.20683 3.66675 5.60016C3.66675 4.56016 4.15341 3.62016 4.93341 2.94016C5.72008 2.2535 6.80008 1.8335 8.00008 1.8335C9.20008 1.8335 10.2801 2.2535 11.0668 2.9335C11.8468 3.62016 12.3334 4.56016 12.3334 5.60016Z" stroke="#9CA5B3" stroke-width="1.5" stroke-linecap="round" stroke-linejoin="round"/>
<path d="M12.3334 5.60016V8.9335C12.3334 11.0135 10.3934 12.5002 8.00008 12.5002C5.60675 12.5002 3.66675 11.0135 3.66675 8.9335V5.60016C3.66675 3.52016 5.60675 1.8335 8.00008 1.8335C9.20008 1.8335 10.2801 2.2535 11.0668 2.9335C11.8468 3.62016 12.3334 4.56016 12.3334 5.60016Z" stroke="#9CA5B3" stroke-width="1.5" stroke-linecap="round" stroke-linejoin="round"/>
</svg>
