<svg width="16" height="17" viewBox="0 0 16 17" fill="none" xmlns="http://www.w3.org/2000/svg">
<path d="M14 4.48617C11.78 4.26617 9.54667 4.15283 7.32 4.15283C6 4.15283 4.68 4.2195 3.36 4.35283L2 4.48617" stroke="#FF8E8E" stroke-width="1.5" stroke-linecap="round" stroke-linejoin="round"/>
<path d="M5.66675 3.8135L5.81341 2.94016C5.92008 2.30683 6.00008 1.8335 7.12675 1.8335H8.87341C10.0001 1.8335 10.0867 2.3335 10.1867 2.94683L10.3334 3.8135" stroke="#FF8E8E" stroke-width="1.5" stroke-linecap="round" stroke-linejoin="round"/>
<path d="M12.5674 6.59375L12.1341 13.3071C12.0607 14.3537 12.0007 15.1671 10.1407 15.1671H5.86075C4.00075 15.1671 3.94075 14.3537 3.86742 13.3071L3.43408 6.59375" stroke="#FF8E8E" stroke-width="1.5" stroke-linecap="round" stroke-linejoin="round"/>
<path d="M6.88721 11.5H9.10721" stroke="#FF8E8E" stroke-width="1.5" stroke-linecap="round" stroke-linejoin="round"/>
<path d="M6.33325 8.8335H9.66659" stroke="#FF8E8E" stroke-width="1.5" stroke-linecap="round" stroke-linejoin="round"/>
</svg>
