<svg width="18" height="19" viewBox="0 0 18 19" fill="none" xmlns="http://www.w3.org/2000/svg">
<path d="M14.895 6.56769C14.895 6.88269 14.8725 7.19019 14.835 7.48269C14.49 7.33269 14.115 7.25019 13.7175 7.25019C12.8025 7.25019 11.9925 7.69268 11.49 8.36768C10.98 7.69268 10.17 7.25019 9.255 7.25019C7.7175 7.25019 6.4725 8.50268 6.4725 10.0552C6.4725 12.0652 7.5375 13.6027 8.7225 14.6452C8.685 14.6677 8.64751 14.6752 8.61001 14.6902C8.38501 14.7727 8.01 14.7727 7.785 14.6902C5.8425 14.0227 1.5 11.2627 1.5 6.56769C1.5 4.49769 3.16499 2.8252 5.21999 2.8252C6.44249 2.8252 7.52249 3.41019 8.19749 4.31769C8.87999 3.41019 9.96 2.8252 11.175 2.8252C13.23 2.8252 14.895 4.49769 14.895 6.56769Z" stroke="#9CA5B3" stroke-width="1.5" stroke-linecap="round" stroke-linejoin="round"/>
<path d="M16.4999 10.055C16.4999 13.565 13.2524 15.635 11.7974 16.13C11.6249 16.19 11.3474 16.19 11.1749 16.13C10.5524 15.92 9.59991 15.4175 8.72241 14.645C7.53741 13.6025 6.47241 12.065 6.47241 10.055C6.47241 8.50249 7.71741 7.25 9.25491 7.25C10.1699 7.25 10.9799 7.69249 11.4899 8.36749C11.9924 7.69249 12.8024 7.25 13.7174 7.25C14.1149 7.25 14.4899 7.3325 14.8349 7.4825C15.8174 7.9175 16.4999 8.89999 16.4999 10.055Z" stroke="#9CA5B3" stroke-width="1.5" stroke-linecap="round" stroke-linejoin="round"/>
</svg>
