<svg width="17" height="17" viewBox="0 0 17 17" fill="none" xmlns="http://www.w3.org/2000/svg">
<path d="M8.49552 15.1668C12.1774 15.1668 15.1622 12.1821 15.1622 8.50016C15.1622 4.81826 12.1774 1.8335 8.49552 1.8335C4.81363 1.8335 1.82886 4.81826 1.82886 8.50016C1.82886 12.1821 4.81363 15.1668 8.49552 15.1668Z" stroke="#B7C3D6" stroke-linecap="round" stroke-linejoin="round"/>
<path d="M5.82884 2.5H6.49551C5.19551 6.39333 5.19551 10.6067 6.49551 14.5H5.82884" stroke="#B7C3D6" stroke-linecap="round" stroke-linejoin="round"/>
<path d="M10.4956 2.5C11.7956 6.39333 11.7956 10.6067 10.4956 14.5" stroke="#B7C3D6" stroke-linecap="round" stroke-linejoin="round"/>
<path d="M2.49561 11.1667V10.5C6.38894 11.8 10.6023 11.8 14.4956 10.5V11.1667" stroke="#B7C3D6" stroke-linecap="round" stroke-linejoin="round"/>
<path d="M2.49561 6.4999C6.38894 5.1999 10.6023 5.1999 14.4956 6.4999" stroke="#B7C3D6" stroke-linecap="round" stroke-linejoin="round"/>
</svg>
